<svg width="26" height="26" fill="none" xmlns="http://www.w3.org/2000/svg"><path fill="#E5E5E5" d="M0 0h26v26H0z"/><path fill="#073042" d="M-1181-24H99v74h-1280z"/><g filter="url(#a)"><rect x="-71" y="-3" width="100" height="32" rx="16" fill="#073042"/></g><rect width="26" height="26" rx="13" fill="#0F4157"/><path fill-rule="evenodd" clip-rule="evenodd" d="M14.43 14.968a3.751 3.751 0 1 0-2.86 0A8.613 8.613 0 0 0 7.81 16.58l1.381 1.838A6.317 6.317 0 0 1 13 17.15c1.431 0 2.749.472 3.81 1.27l1.382-1.84a8.614 8.614 0 0 0-3.762-1.612Z" fill="#fff"/><defs><filter id="a" x="-85" y="-14" width="128" height="60" filterUnits="userSpaceOnUse" color-interpolation-filters="sRGB"><feFlood flood-opacity="0" result="BackgroundImageFix"/><feColorMatrix in="SourceAlpha" values="0 0 0 0 0 0 0 0 0 0 0 0 0 0 0 0 0 0 127 0" result="hardAlpha"/><feOffset dy="3"/><feGaussianBlur stdDeviation="7"/><feColorMatrix values="0 0 0 0 0 0 0 0 0 0 0 0 0 0 0 0 0 0 0.08 0"/><feBlend in2="BackgroundImageFix" result="effect1_dropShadow_1_6015"/><feBlend in="SourceGraphic" in2="effect1_dropShadow_1_6015" result="shape"/></filter></defs></svg>